<svg width="1440" height="373" viewBox="0 0 1440 373" fill="none" xmlns="http://www.w3.org/2000/svg">
<path d="M1188.74 22.2051C1134.44 6.72273 1150.48 22.5727 1118.74 19.7051C1088.9 17.0083 1064.9 19.7051 1045.24 19.7051C1023.24 19.7051 988.243 13.7051 926.243 9.70508C903.741 3.88519 887.992 3.11981 868.191 5.549C843.438 8.58549 754.555 5.54867 710.676 19.9722H639.743C607.865 26.2982 580.743 28.865 561.743 32.705C536.875 37.7311 511.743 44.2051 462.243 49.2051C419.808 53.4914 336.743 48.6335 289.743 58.6874L189.743 72.7051L93.7429 65.7051H-0.25708V421.205H1439.74L1445.74 58.2051L1432.24 52.7051L1376.24 40.2051L1299.24 28.2051L1245.24 30.2051L1188.74 22.2051Z" fill="#EDFFF1"/>
<path fill-rule="evenodd" clip-rule="evenodd" d="M1670.35 77.6614C1670.45 77.6571 1670.6 77.6927 1670.65 77.6387C1670.86 77.4056 1670.79 77.2236 1670.48 77.1838C1670.41 77.1739 1670.27 77.2848 1670.25 77.3629C1670.23 77.4496 1670.31 77.5605 1670.35 77.6614ZM1485.93 63.2518C1485.74 63.1423 1485.56 62.9448 1485.38 62.9419C1485.04 62.9362 1484.98 63.1523 1485.22 63.401C1485.29 63.4835 1485.44 63.6 1485.5 63.573C1485.66 63.5048 1485.79 63.3655 1485.93 63.2518ZM1469.04 61.7863C1468.49 60.1035 1467.57 59.9983 1466.3 59.9784C1466.83 61.2107 1467.35 61.9612 1469.04 61.7863ZM1507.23 64.2396C1507.31 64.1529 1507.41 64.0762 1507.47 63.9767C1507.51 63.9042 1507.5 63.799 1507.52 63.708L1507.26 64.268C1506.18 64.3348 1505.5 62.3364 1503.79 63.7805C1504.93 65.1862 1505.97 65.2815 1507.23 64.2396ZM1575.03 65.7675C1575.53 66.2878 1576.03 66.808 1576.54 67.3282C1576.29 67.7447 1575.98 68.1853 1576.54 68.5633C1576.68 68.6529 1576.96 68.5179 1577.17 68.4852C1576.94 68.09 1576.71 67.6949 1576.48 67.2998C1576.96 67.1718 1577.76 67.0439 1577.53 66.4768C1577.05 65.2758 1576.03 65.2942 1574.98 65.8116L1574.89 65.6738L1575.03 65.7675ZM1602.74 68.913C1600.38 71.2127 1595 71.3037 1592.78 68.9272C1591.19 67.2372 1589.68 65.9196 1587.3 67.3594L1587.35 67.3069C1585.73 67.955 1583.99 65.7534 1582.4 67.5613C1582.75 68.6202 1584.89 67.7134 1584.57 69.5455C1583.24 70.8574 1581.75 68.3928 1580.42 69.6848C1580.14 69.6862 1579.87 69.6876 1579.6 69.689L1579.65 69.645C1579.72 69.7075 1579.81 69.8326 1579.87 69.8213C1580.05 69.7914 1580.21 69.7047 1580.38 69.6393C1581.81 70.5532 1583.76 70.7764 1584.6 72.5374C1583.8 73.4428 1582.98 73.0662 1582.29 72.9652C1578.89 72.4749 1575.48 71.4217 1572.29 73.6617C1567.16 71.0564 1561.25 73.4414 1555.98 70.8602C1552.91 69.3522 1549.24 68.606 1545.79 68.4297C1541.64 68.2165 1537.16 68.6202 1533.35 67.8058C1528.35 66.7398 1522.86 68.3999 1518.3 65.1905C1517.23 64.4329 1516.05 65.1819 1514.94 65.0199C1514.75 64.9773 1514.72 64.4002 1514.38 64.8493L1514.97 64.9829C1515.25 67.4291 1518.65 66.194 1519.1 68.7723C1517.44 69.5071 1515.04 69.6564 1514.24 68.606C1513.2 67.2358 1512.46 65.6638 1510.63 64.5594C1510.15 65.6738 1511.66 67.0212 1510.28 67.8967C1509.02 68.6955 1508.05 67.8384 1507.04 67.4348C1501.64 65.2715 1495.86 66.2991 1490.28 65.1137C1492.37 66.1101 1494.14 67.422 1496.29 68.3714C1495.2 69.1518 1494.1 69.3565 1493.2 69.1518C1488.09 67.992 1482.54 68.7254 1477.89 65.5799C1477.09 65.0356 1476.17 64.9787 1475.3 65.2729C1472.92 66.076 1471.04 65.4179 1468.82 64.2296C1466.66 63.0741 1463.78 63.4095 1461.25 63.0315C1456.82 62.3719 1452.57 60.4304 1447.97 60.9435C1447.73 60.9691 1447.45 60.8781 1447.22 60.7772C1445.44 59.9841 1444.12 58.0255 1441.66 58.81C1441.17 58.9664 1440.28 57.8122 1439.73 56.3085C1442.37 57.8179 1444.85 56.1791 1447.18 57.2892L1447.15 57.2508C1447.51 58.6181 1448.58 58.26 1449.55 58.3041C1451.39 58.3879 1453.16 58.8896 1454.88 59.569C1455.06 59.6387 1455.08 60.2513 1455.45 59.7496C1455.24 59.7069 1455.04 59.6629 1454.84 59.6188C1454.86 59.3473 1454.88 59.0758 1454.89 58.8029L1454.87 58.83C1456.7 58.1079 1458.27 59.3985 1460 59.5179C1461.41 59.6159 1463.33 62.3705 1464.11 58.4433C1464.32 57.3546 1467.03 58.6153 1468.66 58.3453C1469.89 58.1406 1471.97 57.9814 1471.34 60.6564C1471.09 61.7181 1472.15 62.1886 1473.05 62.3549C1473.91 62.5183 1474.34 62.1303 1474.51 61.1197C1475 58.0766 1478.06 60.8213 1479.47 59.0303C1479.97 58.395 1480.47 60.4105 1481.07 61.1368C1480.67 61.5248 1479.97 61.6982 1480.14 62.4714C1480.16 62.5439 1480.36 62.6463 1480.44 62.6192C1481.18 62.3407 1480.84 61.6158 1481.03 61.1055C1482.62 61.1879 1483.71 61.0203 1485.32 59.8405C1487.11 58.5329 1490.67 58.9166 1493.62 60.2797C1492.86 61.2661 1491.71 62.4018 1493.44 63.4706C1494.55 64.1586 1495.36 64.0705 1495.72 62.6648L1495.69 62.6974C1496.41 62.1715 1497.13 61.6456 1497.88 61.097C1499.24 61.3202 1498.82 63.546 1500.38 63.5346C1501.69 62.5809 1499.91 61.6058 1500.58 60.5938C1500.84 60.4958 1501.22 60.2001 1501.53 60.2627C1504.24 60.8127 1507.12 60.2072 1509.72 61.6911C1510.58 62.1772 1511.96 62.7685 1512.64 61.1283L1512.62 61.1524C1517.26 61.4026 1521.89 62.6505 1526.55 61.3145C1526.78 61.2476 1527.12 61.2221 1527.3 61.3415C1531.13 63.853 1535.53 61.1695 1539.02 62.2412C1544.47 63.9127 1550.15 60.5853 1555.22 63.8971C1555.87 64.3206 1556.72 63.9994 1557.38 63.4863C1558.04 62.9703 1558.94 62.7401 1559.55 63.1451C1562.4 65.0171 1565.85 64.5722 1568.85 65.7675C1569.35 66.5649 1570.26 67.0866 1570.41 68.1242L1570.36 68.0815C1570.95 67.8029 1571.62 67.3438 1571.4 66.717C1570.98 65.4847 1569.76 65.9097 1568.82 65.8045C1568.94 65.1706 1569.06 64.2069 1569.71 64.2652C1575.16 64.7499 1580.82 61.4623 1586.08 65.1848C1586.33 65.3596 1586.92 65.3795 1587.14 65.2061C1590.06 62.9135 1592.04 64.3107 1593.87 66.7767C1594.81 68.0403 1596.09 68.0062 1597.28 67.1704C1598.38 66.4043 1599.38 65.887 1600.81 66.3546C1607.56 68.5619 1614.61 68.3359 1621.57 68.8462C1623.29 68.9713 1625.08 69.4034 1626.6 70.4282C1626.78 70.5177 1626.82 71.0934 1627.18 70.6058C1626.98 70.5518 1626.78 70.4964 1626.58 70.4424C1627.62 69.2157 1628.66 68.2151 1629.69 70.4424L1629.66 70.4154C1633.68 70.748 1637.61 72.1011 1641.93 71.4487C1643.61 72.3001 1640.57 74.7206 1643.27 75.6701C1643.79 72.9582 1645.38 71.7443 1648.16 72.7805L1648.13 72.7507C1649.87 74.8628 1650.61 71.7699 1651.99 71.9973L1651.97 71.9732C1652.06 72.0243 1652.15 72.1267 1652.24 72.1196C1652.43 72.0983 1652.62 72.0244 1652.81 71.9718L1652.78 71.9959C1655.05 71.5852 1654.49 74.2089 1655.73 74.8784C1659.05 72.2233 1660.54 72.1807 1664.33 74.7931C1665.02 75.2664 1665.32 75.771 1666.11 74.8756C1667 73.8764 1668 74.8613 1668.94 75.0973L1668.92 75.0717C1669 75.1314 1669.1 75.2494 1669.18 75.2394C1669.37 75.2138 1669.56 75.13 1669.75 75.0689L1669.73 75.093C1672.03 74.0739 1674.27 75.2778 1676.54 75.3219C1682.11 75.4256 1687.7 75.6701 1693.21 76.6807C1695.58 77.117 1698.02 76.9408 1700.4 77.0659C1702.69 77.1867 1704.39 77.8235 1706.4 78.736C1707.75 79.3486 1710.01 78.554 1711.86 78.7928C1715.21 79.2235 1718.86 78.0764 1721.81 80.6846C1722.03 80.885 1722.53 80.9632 1722.83 80.8651C1728.4 79.0245 1733.65 81.3996 1739.03 82.0832L1738.99 82.0434C1734.29 85.6451 1729.3 86.4112 1723.42 85.0311C1718.3 83.8286 1712.83 84.039 1707.55 83.9395C1703.78 83.8684 1700.04 83.3753 1696.68 82.3448C1691.29 80.6932 1685.82 81.0044 1680.42 80.3236C1675.68 79.728 1670.97 78.8895 1666.14 78.7999C1664.13 78.763 1662.18 77.9315 1660.28 79.1993C1660.17 79.2675 1659.99 79.3671 1659.93 79.3244C1657.05 77.3416 1653.33 80.1744 1650.48 77.5406C1648.71 75.8947 1646.42 77.2648 1644.38 77.2066C1638.88 77.0488 1633.52 76.0197 1628.14 75.0689C1628.14 75.0689 1628.17 75.103 1628.17 75.103C1627.9 74.8287 1627.62 74.5543 1627.35 74.28L1627.37 74.3113C1623.59 74.6823 1620.11 73.5409 1616.69 72.1466C1615.46 71.6434 1614.26 71.625 1612.94 71.868C1609.53 72.4977 1606.5 70.4907 1603.2 70.2235C1603 70.2064 1602.86 69.3423 1602.69 68.8718L1602.74 68.913Z" fill="#7C6063"/>
<path fill-rule="evenodd" clip-rule="evenodd" d="M271.925 65.6133C271.823 65.609 271.675 65.6445 271.625 65.5905C271.413 65.3574 271.48 65.1755 271.792 65.1357C271.865 65.1257 272.005 65.2366 272.024 65.3148C272.045 65.4015 271.963 65.5124 271.925 65.6133ZM456.344 51.2036C456.527 51.0942 456.711 50.8966 456.896 50.8938C457.226 50.8881 457.287 51.1041 457.054 51.3529C456.978 51.4353 456.831 51.5519 456.77 51.5249C456.612 51.4566 456.484 51.3173 456.344 51.2036ZM473.234 49.7382C473.78 48.0553 474.697 47.9501 475.974 47.9302C475.44 49.1625 474.924 49.913 473.234 49.7382ZM435.046 52.1915C434.962 52.1048 434.862 52.028 434.803 51.9285C434.759 51.856 434.767 51.7509 434.752 51.6599L435.01 52.2199C436.095 52.2867 436.769 50.2883 438.479 51.7324C437.339 53.1381 436.301 53.2333 435.046 52.1915ZM367.246 53.7194C366.742 54.2396 366.239 54.7599 365.735 55.2801C365.979 55.6965 366.291 56.1371 365.727 56.5152C365.595 56.6047 365.314 56.4697 365.1 56.437C365.329 56.0419 365.558 55.6467 365.788 55.2516C365.307 55.1237 364.513 54.9958 364.739 54.4287C365.218 53.2276 366.243 53.2461 367.29 53.7635L367.383 53.6256L367.246 53.7194ZM339.535 56.8649C341.888 59.1646 347.275 59.2556 349.496 56.8791C351.076 55.1891 352.59 53.8715 354.976 55.3113L354.924 55.2587C356.538 55.9069 358.284 53.7052 359.876 55.5132C359.518 56.5721 357.386 55.6652 357.701 57.4974C359.032 58.8093 360.524 56.3446 361.856 57.6366C362.127 57.6381 362.397 57.6395 362.668 57.6409L362.624 57.5968C362.548 57.6594 362.46 57.7845 362.397 57.7731C362.223 57.7433 362.059 57.6565 361.893 57.5911C360.459 58.5051 358.508 58.7282 357.675 60.4893C358.473 61.3947 359.291 61.018 359.984 60.9171C363.377 60.4267 366.787 59.3735 369.986 61.6136C375.11 59.0083 381.02 61.3933 386.288 58.8121C389.366 57.304 393.031 56.5579 396.478 56.3816C400.629 56.1684 405.109 56.5721 408.923 55.7576C413.92 54.6916 419.41 56.3518 423.968 53.1424C425.044 52.3848 426.216 53.1338 427.332 52.9718C427.524 52.9291 427.553 52.3521 427.892 52.8012L427.304 52.9348C427.023 55.3809 423.622 54.1458 423.174 56.7241C424.831 57.459 427.231 57.6082 428.029 56.5578C429.068 55.1877 429.808 53.6157 431.643 52.5113C432.119 53.6256 430.609 54.973 431.991 55.8486C433.252 56.6474 434.225 55.7903 435.233 55.3866C440.627 53.2233 446.411 54.251 451.988 53.0656C449.899 54.0619 448.128 55.3738 445.983 56.3233C447.068 57.1036 448.17 57.3083 449.072 57.1036C454.183 55.9438 459.735 56.6772 464.383 53.5318C465.186 52.9874 466.105 52.9306 466.974 53.2248C469.347 54.0278 471.228 53.3697 473.453 52.1815C475.615 51.0259 478.494 51.3614 481.025 50.9833C485.448 50.3238 489.705 48.3822 494.303 48.8954C494.543 48.9209 494.817 48.83 495.047 48.7291C496.835 47.9359 498.156 45.9773 500.615 46.7619C501.102 46.9182 501.987 45.7641 502.546 44.2603C499.902 45.7698 497.42 44.131 495.09 45.241L495.125 45.2027C494.759 46.57 493.694 46.2119 492.725 46.2559C490.879 46.3398 489.111 46.8415 487.393 47.5209C487.207 47.5905 487.191 48.2032 486.824 47.7014C487.027 47.6588 487.231 47.6147 487.433 47.5706C487.414 47.2992 487.396 47.0277 487.379 46.7548L487.406 46.7818C485.567 46.0598 483.996 47.3503 482.275 47.4697C480.856 47.5678 478.945 50.3224 478.166 46.3952C477.95 45.3064 475.236 46.5672 473.607 46.2971C472.376 46.0924 470.304 45.9333 470.93 48.6082C471.178 49.67 470.119 50.1404 469.225 50.3067C468.365 50.4702 467.928 50.0822 467.766 49.0716C467.276 46.0285 464.214 48.7731 462.803 46.9822C462.303 46.3469 461.804 48.3623 461.205 49.0886C461.598 49.4767 462.306 49.6501 462.126 50.4233C462.109 50.4958 461.907 50.5981 461.835 50.5711C461.089 50.2925 461.431 49.5676 461.242 49.0574C459.653 49.1398 458.557 48.9721 456.95 47.7924C455.166 46.4847 451.604 46.8685 448.647 48.2316C449.411 49.218 450.558 50.3536 448.828 51.4225C447.717 52.1104 446.916 52.0223 446.555 50.6166L446.582 50.6493C445.863 50.1234 445.143 49.5975 444.392 49.0489C443.031 49.272 443.451 51.4978 441.889 51.4865C440.577 50.5327 442.356 49.5577 441.688 48.5457C441.43 48.4476 441.051 48.152 440.745 48.2145C438.033 48.7646 435.147 48.1591 432.547 49.643C431.695 50.1291 430.314 50.7204 429.627 49.0801L429.653 49.1043C425.012 49.3545 420.382 50.6024 415.721 49.2663C415.488 49.1995 415.153 49.1739 414.972 49.2933C411.144 51.8049 406.74 49.1213 403.247 50.193C397.804 51.8645 392.117 48.5372 387.047 51.8489C386.398 52.2725 385.551 51.9513 384.894 51.4382C384.233 50.9222 383.332 50.6919 382.718 51.097C379.876 52.9689 376.425 52.524 373.422 53.7194C372.922 54.5168 372.007 55.0384 371.864 56.076L371.907 56.0334C371.316 55.7548 370.65 55.2957 370.867 54.6689C371.295 53.4365 372.51 53.8615 373.451 53.7563C373.333 53.1224 373.208 52.1588 372.558 52.2171C367.116 52.7017 361.455 49.4141 356.189 53.1366C355.942 53.3115 355.355 53.3314 355.133 53.158C352.216 50.8653 350.227 52.2625 348.4 54.7286C347.462 55.9922 346.184 55.958 344.989 55.1223C343.894 54.3562 342.895 53.8388 341.459 54.3064C334.706 56.5138 327.66 56.2878 320.696 56.7981C318.979 56.9231 317.193 57.3552 315.675 58.38C315.491 58.4696 315.455 59.0452 315.096 58.5577C315.294 58.5037 315.491 58.4482 315.689 58.3942C314.652 57.1676 313.616 56.167 312.58 58.3942L312.607 58.3672C308.596 58.6998 304.661 60.0529 300.339 59.4005C298.659 60.2519 301.702 62.6725 299.005 63.622C298.483 60.91 296.888 59.6962 294.11 60.7324L294.14 60.7025C292.397 62.8146 291.657 59.7217 290.277 59.9492L290.299 59.925C290.21 59.9762 290.117 60.0785 290.034 60.0714C289.842 60.0501 289.654 59.9762 289.464 59.9236L289.487 59.9478C287.226 59.537 287.778 62.1608 286.536 62.8303C283.224 60.1752 281.727 60.1325 277.939 62.745C277.252 63.2183 276.947 63.7229 276.156 62.8274C275.274 61.8282 274.272 62.8132 273.333 63.0491L273.356 63.0236C273.268 63.0833 273.173 63.2012 273.094 63.1913C272.899 63.1657 272.711 63.0818 272.521 63.0207L272.543 63.0449C270.245 62.0258 268.005 63.2297 265.733 63.2737C260.156 63.3775 254.576 63.622 249.066 64.6325C246.69 65.0689 244.251 64.8926 241.872 65.0177C239.579 65.1385 237.878 65.7753 235.87 66.6878C234.523 67.3004 232.258 66.5059 230.408 66.7446C227.062 67.1753 223.415 66.0283 220.464 68.6365C220.238 68.8369 219.741 68.9151 219.444 68.817C213.871 66.9763 208.618 69.3514 203.241 70.0351L203.279 69.9953C207.978 73.597 212.967 74.3631 218.847 72.983C223.967 71.7805 229.442 71.9909 234.723 71.8914C238.495 71.8203 242.227 71.3271 245.59 70.2966C250.984 68.645 256.447 68.9563 261.85 68.2754C266.587 67.6799 271.305 66.8413 276.131 66.7518C278.14 66.7148 280.091 65.8833 281.994 67.1512C282.097 67.2194 282.282 67.3189 282.343 67.2763C285.219 65.2935 288.936 68.1262 291.786 65.4925C293.565 63.8465 295.853 65.2167 297.895 65.1584C303.39 65.0007 308.748 63.9716 314.128 63.0207C314.128 63.0207 314.097 63.0549 314.099 63.0549C314.374 62.7805 314.65 62.5062 314.924 62.2319L314.898 62.2632C318.678 62.6341 322.158 61.4928 325.58 60.0984C326.813 59.5953 328.015 59.5768 329.332 59.8199C332.741 60.4495 335.768 58.4426 339.069 58.1753C339.273 58.1583 339.41 57.2941 339.576 56.8237L339.535 56.8649Z" fill="#7C6063"/>
<path fill-rule="evenodd" clip-rule="evenodd" d="M148.517 70.5755C148.618 70.5645 148.768 70.5902 148.814 70.5331C149.01 70.2865 148.932 70.1093 148.618 70.0902C148.544 70.0851 148.412 70.205 148.399 70.2842C148.383 70.3721 148.472 70.4773 148.517 70.5755ZM-36.4445 68.3828C-36.6349 68.2857 -36.831 68.1007 -37.0158 68.1101C-37.346 68.1263 -37.3925 68.3459 -37.1437 68.5787C-37.0622 68.6559 -36.908 68.7625 -36.8491 68.7315C-36.6957 68.653 -36.5766 68.5055 -36.4445 68.3828ZM-53.3935 68.0366C-54.0488 66.3934 -54.9703 66.349 -56.2457 66.4135C-55.6325 67.6079 -55.0692 68.3227 -53.3935 68.0366ZM-15.1278 67.9612C-15.0504 67.8692 -14.9553 67.786 -14.9026 67.6828C-14.8636 67.6075 -14.8789 67.5031 -14.8694 67.4113L-15.0908 67.9872C-16.1689 68.1255 -16.9715 66.176 -18.5841 67.73C-17.355 69.0573 -16.3128 69.0838 -15.1278 67.9612ZM52.6253 65.0058C53.1624 65.4916 53.698 65.9775 54.2351 66.4633C54.0184 66.895 53.7357 67.3552 54.3227 67.6953C54.4611 67.7759 54.7328 67.6226 54.9434 67.5758C54.6893 67.1967 54.4352 66.8175 54.1797 66.4384C54.652 66.2789 55.4357 66.0989 55.1732 65.5479C54.617 64.3811 53.595 64.4673 52.5844 65.0527L52.4824 64.9213L52.6253 65.0058ZM80.4812 66.3135C78.2833 68.7637 72.9138 69.2105 70.5432 66.9858C68.8558 65.4039 67.2589 64.1892 64.9724 65.7835L65.0212 65.7276C63.4526 66.481 61.5669 64.3995 60.0964 66.3087C60.5221 67.3418 62.5912 66.2959 62.3964 68.1449C61.153 69.542 59.5038 67.1813 58.2591 68.5585C57.9886 68.5778 57.7194 68.5971 57.4489 68.6164L57.4898 68.5695C57.57 68.6269 57.6655 68.7459 57.7282 68.7304C57.8996 68.6891 58.0574 68.5918 58.2195 68.5155C59.7096 69.3327 61.6706 69.4265 62.617 71.1287C61.8798 72.0849 61.0392 71.7631 60.3406 71.7082C56.9232 71.4431 53.4523 70.6174 50.4062 73.064C45.1229 70.8029 39.3817 73.5733 33.9562 71.3458C30.7868 70.0444 27.0807 69.542 23.6302 69.5938C19.4741 69.6554 15.0299 70.3542 11.1715 69.7935C6.11548 69.06 0.745552 71.0794 -4.01196 68.178C-5.13534 67.4932 -6.25628 68.3181 -7.38027 68.2301C-7.57473 68.2003 -7.64056 67.6263 -7.94952 68.0969L-7.35447 68.1914C-6.91439 70.6137 -3.60125 69.1565 -2.98624 71.6997C-4.5915 72.5424 -6.97623 72.8499 -7.84108 71.8545C-8.96779 70.5559 -9.80892 69.0362 -11.7118 68.0555C-12.114 69.1989 -10.5195 70.4436 -11.8408 71.4086C-13.0472 72.289 -14.0742 71.498 -15.1068 71.1619C-20.6304 69.3597 -26.3348 70.7673 -31.9764 69.9529C-29.8269 70.8091 -27.974 72.0011 -25.7726 72.8069C-26.8041 73.6572 -27.89 73.9342 -28.804 73.7896C-33.9788 72.97 -39.4712 74.0687 -44.3148 71.2372C-45.1508 70.747 -46.072 70.751 -46.9196 71.102C-49.235 72.0601 -51.1553 71.5277 -53.4526 70.489C-55.6858 69.4789 -58.5362 70.0038 -61.0865 69.7938C-65.5438 69.428 -69.9184 67.7719 -74.4724 68.5877C-74.7103 68.6291 -74.9897 68.5564 -75.226 68.471C-77.062 67.7977 -78.5076 65.9306 -80.9102 66.876C-81.3862 67.0642 -82.3438 65.9709 -83 64.5073C-80.2632 65.8389 -77.8937 64.0396 -75.4958 64.9933L-75.5336 64.9573C-75.0793 66.2975 -74.0401 65.8698 -73.0703 65.8497C-71.2228 65.8114 -69.4255 66.1952 -67.6673 66.7597C-67.4768 66.8168 -67.4213 67.4271 -67.0875 66.9022C-67.2933 66.8731 -67.4991 66.8425 -67.7036 66.8119C-67.703 66.5398 -67.7023 66.2677 -67.7032 65.9943L-67.7282 66.023C-65.9403 65.181 -64.2888 66.365 -62.563 66.3704C-61.1416 66.3745 -59.055 68.9969 -58.5332 65.0267C-58.3886 63.926 -55.599 65.0047 -53.9902 64.6275C-52.776 64.342 -50.7188 64.0463 -51.1685 66.7568C-51.3473 67.8327 -50.2596 68.2321 -49.3566 68.339C-48.4877 68.4453 -48.0774 68.0292 -47.9813 67.0101C-47.6908 63.9412 -44.4562 66.4775 -43.1651 64.5973C-42.7076 63.9303 -42.0785 65.9084 -41.4336 66.5936C-41.8001 67.0067 -42.4949 67.2265 -42.2655 67.9862C-42.2438 68.0574 -42.0355 68.1462 -41.9654 68.1145C-41.2394 67.7872 -41.6278 67.0865 -41.4722 66.5648C-39.8813 66.5421 -38.7986 66.3023 -37.2717 65.0189C-35.5769 63.5962 -31.9974 63.7438 -28.9587 64.9086C-29.6568 65.9434 -30.7271 67.1524 -28.9308 68.1046C-27.7767 68.7176 -26.9834 68.5767 -26.7157 67.1503L-26.7404 67.1846C-26.0573 66.6124 -25.3728 66.04 -24.6588 65.4429C-23.287 65.5757 -23.5604 67.8245 -22.0024 67.7099C-20.7553 66.6715 -22.5947 65.8162 -21.9941 64.7622C-21.7426 64.6473 -21.3842 64.3273 -21.0743 64.3694C-18.3324 64.7391 -15.4925 63.9442 -12.801 65.2531C-11.9194 65.6819 -10.5024 66.1806 -9.92446 64.4986L-9.94827 64.5243C-5.30068 64.4673 -0.599277 65.4066 3.96452 63.7654C4.19272 63.6833 4.52503 63.6357 4.71321 63.7429C8.69653 65.9961 12.916 63.0274 16.4713 63.8659C22.0121 65.1742 27.4692 61.4782 32.745 64.4478C33.4195 64.8276 34.2443 64.4511 34.8661 63.8957C35.4921 63.3371 36.3762 63.0478 37.0157 63.4114C39.9735 65.0915 43.3876 64.4196 46.462 65.414C47.0129 66.1766 47.9603 66.6366 48.1703 67.6626L48.1252 67.6228C48.6962 67.3058 49.3315 66.8036 49.0735 66.1925C48.5661 64.9912 47.3818 65.4955 46.4362 65.4527C46.5119 64.8124 46.5744 63.8425 47.2265 63.8577C52.6885 63.9818 58.1228 60.3272 63.6199 63.6937C63.878 63.8519 64.4656 63.8329 64.6755 63.6452C67.4363 61.1648 69.5119 62.4276 71.4965 64.7675C72.5148 65.9664 73.7881 65.8479 74.9259 64.935C75.9682 64.0982 76.9308 63.516 78.3947 63.8877C85.277 65.6441 92.2937 64.9529 99.2753 65.002C100.997 65.0133 102.807 65.3265 104.389 66.2488C104.578 66.326 104.652 66.898 104.978 66.3878C104.778 66.347 104.577 66.3047 104.376 66.2639C105.33 64.9714 106.299 63.9044 107.478 66.0584L107.449 66.0333C111.474 66.1001 115.488 67.1903 119.759 66.2537C121.49 66.9923 118.612 69.6087 121.365 70.3779C121.709 67.6373 123.221 66.3207 126.061 67.1711L126.029 67.1433C127.906 69.1357 128.443 66.0005 129.835 66.1363L129.811 66.1137C129.903 66.1588 130.003 66.2548 130.085 66.2422C130.276 66.2083 130.458 66.1221 130.644 66.0571L130.623 66.0827C132.852 65.5234 132.472 68.178 133.755 68.764C136.887 65.8958 138.378 65.7543 142.328 68.1108C143.044 68.5377 143.381 69.0211 144.112 68.0753C144.928 67.0199 145.992 67.9366 146.944 68.11L146.92 68.086C147.011 68.1397 147.113 68.2512 147.192 68.236C147.384 68.1976 147.566 68.1015 147.753 68.0279L147.732 68.0536C149.958 66.8848 152.272 67.9381 154.543 67.8319C160.114 67.567 165.698 67.4421 171.262 68.0865C173.661 68.3649 176.084 68.0278 178.465 67.9955C180.762 67.9645 182.501 68.4875 184.564 69.2653C185.947 69.7877 188.156 68.8451 190.018 68.9611C193.385 69.1698 196.949 67.7842 200.064 70.1918C200.302 70.3769 200.803 70.4221 201.093 70.3046C206.534 68.0996 211.931 70.1225 217.341 70.4494L217.3 70.4122C212.846 74.3166 207.918 75.4107 201.961 74.4221C196.773 73.5606 191.324 74.1322 186.048 74.3819C182.279 74.5602 178.523 74.3147 175.1 73.5087C169.61 72.217 164.179 72.8886 158.743 72.5662C153.978 72.285 149.215 71.7599 144.394 71.9895C142.387 72.0853 140.385 71.3846 138.569 72.7755C138.471 72.8503 138.293 72.9619 138.229 72.9233C135.231 71.1348 131.706 74.2071 128.69 71.7674C126.808 70.2425 124.614 71.7609 122.573 71.8377C117.08 72.0433 111.665 71.3706 106.235 70.7772C106.235 70.7772 106.268 70.8093 106.267 70.8093C105.974 70.5538 105.681 70.2983 105.39 70.0427L105.417 70.0722C101.67 70.6921 98.1229 69.7832 94.617 68.618C93.3537 68.1974 92.1531 68.2584 90.8555 68.5879C87.4943 69.4415 84.343 67.6389 81.0319 67.5903C80.8278 67.5868 80.6347 66.7335 80.4377 66.2751L80.4812 66.3135Z" fill="#7C6063"/>
<path fill-rule="evenodd" clip-rule="evenodd" d="M1308.33 34.2243L1308.48 34.0139L1308.25 33.9741L1308.33 34.2243ZM1330.11 36.2611C1330.21 36.0934 1330.31 35.9256 1330.41 35.7593C1330.22 35.6726 1330 35.4907 1329.84 35.5277C1329.7 35.5589 1329.62 35.8489 1329.51 36.0223C1329.71 36.1019 1329.91 36.1815 1330.11 36.2611ZM1224.93 28.0556C1225.13 27.9774 1225.45 27.9561 1225.52 27.8126C1225.71 27.4075 1225.43 27.1417 1225.06 27.0678C1224.88 27.0308 1224.52 27.136 1224.47 27.2696C1224.3 27.6676 1224.58 27.9078 1224.93 28.0556ZM1296.83 29.8551C1297.36 29.8764 1298.03 30.6368 1298.61 29.5822C1298 29.241 1297.46 29.0762 1296.83 29.8551ZM1294.22 29.0719C1294.1 28.2887 1294.04 27.6008 1293.07 27.4658C1292.96 27.4501 1292.66 27.8069 1292.69 27.9334C1292.85 28.5772 1293.16 29.1145 1294.22 29.0719ZM1304.72 29.7186C1303.51 28.6895 1302.35 28.5844 1300.43 28.9482C1302.16 29.6205 1303.16 30.5686 1304.72 29.7186ZM1217.84 25.8809C1217.99 27.4203 1218.22 28.4678 1219.7 29.0307C1220.27 27.2227 1219.27 26.6428 1217.84 25.8809ZM1282.56 28.7023C1282.65 28.6114 1282.76 28.5332 1282.82 28.4266C1282.87 28.3484 1282.85 28.2333 1282.86 28.1352C1282.77 28.3328 1282.68 28.5318 1282.6 28.7308C1281.46 28.8502 1280.45 29.1046 1280.56 30.634C1282.42 31.103 1282.24 29.6532 1282.56 28.7023ZM1311.81 30.2132C1312.26 30.2402 1312.82 30.5458 1313.04 29.8593C1313.08 29.7129 1312.86 29.3192 1312.72 29.3021C1312.03 29.2112 1311.98 29.7968 1311.85 30.2644C1311.19 30.1237 1310.62 29.2382 1309.82 29.9915C1310.29 30.6425 1310.19 31.9046 1311.44 31.5877C1311.67 31.5322 1311.69 30.6922 1311.81 30.2132ZM1332.6 35.6556L1332.73 35.5774L1332.64 35.7011L1332.52 35.7892L1332.6 35.6556ZM1257.94 32.5954C1255.14 33.2492 1252.58 35.3301 1249.45 34.0978L1249.48 34.1319C1249.87 33.3189 1249.86 32.6224 1248.86 32.3211C1248.06 32.0823 1247.64 32.5599 1247.56 33.2663C1247.42 34.5157 1247.09 35.5404 1245.61 35.6613L1245.65 35.7053C1245.71 35.1993 1246.01 34.4844 1245.79 34.22C1243.07 30.9992 1238.53 29.1472 1235.53 30.3141C1232.16 31.6204 1231.3 29.7527 1229.58 28.6071C1227.96 29.3334 1230.17 30.5131 1228.76 31.4157C1227.45 31.8847 1226.41 29.7996 1224.81 30.2729C1224.55 30.01 1224.29 29.747 1224.02 29.4841C1223.58 28.6512 1223.09 27.8581 1221.96 28.3513C1221.61 28.509 1221.4 28.9553 1221.67 29.3206C1222.39 30.3028 1223.24 29.8195 1224.06 29.4485C1224.32 29.7129 1224.58 29.9773 1224.84 30.2417C1224.4 30.6922 1223.86 31.5948 1223.52 31.5237C1220.8 30.9594 1218.18 29.909 1215.36 31.3361C1214.83 31.6033 1214.17 30.5075 1214.14 29.6717C1214.08 27.8453 1216.02 29.5736 1216.5 28.0002C1213.72 27.362 1211.69 24.9443 1208.19 25.7303C1205.54 26.3272 1202.76 25.075 1200.05 24.6301C1196.07 23.9792 1192.09 22.2593 1187.67 24.5406C1185.57 25.628 1182.01 26.4481 1179.38 24.073C1179.12 23.8114 1178.86 23.5485 1178.6 23.287C1178.17 22.7653 1177.66 22.5123 1177.05 22.9274C1176.94 22.9999 1176.9 23.432 1176.99 23.5044C1177.6 24.0062 1178.09 23.4291 1178.63 23.2614C1178.89 23.5215 1179.15 23.7816 1179.41 24.0417C1177.51 25.7033 1175.56 26.9697 1173.2 24.8121L1173.24 24.8519C1171.64 23.5116 1172.38 21.7874 1172.48 20.1671L1172.45 20.2012C1174.39 19.4252 1176.33 18.7557 1177.86 20.9588L1177.84 20.9375C1181.69 19.6512 1185.46 20.45 1189.37 20.9233C1193 21.3639 1196.51 22.5507 1200.19 22.5308L1200.15 22.4868C1200.94 23.3609 1201.72 24.4866 1202.51 22.4896L1202.48 22.5266C1208.28 23.3339 1214.09 22.8279 1220 24.3203C1226.9 26.0643 1234.13 27.6747 1241.47 27.0251C1242.71 26.9143 1243.97 26.6769 1244.89 28.0954C1245.59 29.1884 1246.86 29.0364 1248 28.7407C1252.26 27.6306 1252.26 27.6221 1255.59 30.7931C1256.52 27.9092 1258.52 27.7984 1261.07 28.2958C1262.76 28.6256 1264.6 28.1338 1266.37 27.9917C1268.55 27.8182 1270.63 27.9305 1272.79 28.6668C1274.9 29.3874 1277.27 29.6006 1279.17 27.6761C1279.6 27.2398 1280.23 26.8674 1280.82 26.7551C1283.72 26.2064 1286.49 25.4304 1289.31 24.4269C1292.11 23.4277 1295.79 24.0119 1299.1 24.5022C1305.34 25.4218 1311.58 26.4111 1317.63 28.0641C1321.1 29.0108 1325.33 28.4138 1328.03 32.1463C1328.45 29.666 1330.02 29.2595 1331.95 29.7854C1333.07 30.0924 1334.17 30.5188 1333.38 32.2301C1332.93 33.2165 1333.15 33.3189 1334.94 33.3331C1335.22 33.6259 1335.28 34.2101 1335.91 34.0509C1335.85 33.3914 1335.26 33.5619 1334.91 33.3672C1336 31.4285 1337.22 30.6467 1339.56 31.8904C1341.15 32.7333 1343.34 32.1335 1344.97 33.3729L1344.92 33.3174C1345.15 34.0651 1345.19 34.7218 1344.19 34.8795L1344.22 34.9165C1343.94 34.915 1343.65 34.915 1343.36 34.9136L1343.39 34.8824C1337.14 34.1518 1332.38 38.5225 1326.74 40.2764C1326.59 38.6845 1327.94 39.0412 1328.25 38.0235C1327.22 37.4834 1325.95 37.04 1326.78 35.1496C1327.33 33.8903 1326.53 32.1576 1324.81 33.3217C1322.48 34.8895 1320.12 33.6458 1317.81 34.0452C1316.72 34.2357 1315.56 32.8243 1314.65 35.097C1314.1 36.4444 1312.32 34.5711 1310.58 33.407C1311.62 36.1147 1310.2 36.6377 1308.64 36.8097C1307.8 36.9035 1306.1 38.0634 1306.45 35.6542C1306.53 35.7366 1306.6 35.8375 1306.7 35.8958C1306.77 35.9399 1306.88 35.9299 1306.96 35.9427C1306.78 35.8617 1306.59 35.7807 1306.41 35.6996C1306.31 33.471 1304.03 32.0098 1301.29 32.8527C1298.15 33.8163 1295.02 32.7688 1291.82 33.2904C1289.42 33.6842 1290.89 30.9338 1291.07 29.4954L1291.23 29.2893L1291.02 29.4471C1290.19 29.1259 1289.39 28.6483 1288.05 29.0335C1289.51 31.4612 1289.4 33.5762 1286.43 34.6862C1286.08 34.817 1285.46 35.1737 1285.46 35.1652C1283.44 31.3418 1278.72 34.6208 1276.36 31.6531C1275.65 30.7519 1275.17 31.1655 1274.08 31.7085C1272.32 32.5855 1269.86 32.3367 1267.74 32.1107C1265.65 31.8861 1263.83 32.3211 1261.95 33.0844C1260.57 33.643 1259.02 34.3863 1257.9 32.5442C1258.07 32.4135 1258.57 32.7759 1258.43 32.1818C1258.27 32.3197 1258.1 32.4575 1257.94 32.5954Z" fill="#7C6063"/>
<path fill-rule="evenodd" clip-rule="evenodd" d="M1375.77 44.2097C1371.38 41.9099 1366.45 41.4238 1361.76 41.2959C1357.89 41.1893 1353.75 40.3792 1349.9 42.0635C1349.12 42.4003 1348.43 42.1175 1347.84 41.4935C1346.71 40.3095 1345.8 41.0145 1344.92 41.8801L1344.95 41.8531C1342.1 41.846 1339.43 43.7748 1336.48 42.6505L1336.51 42.6945C1337.11 38.6124 1338.71 36.8258 1342.52 37.626C1344.99 38.1434 1345.93 37.1015 1347.2 35.7555C1347.52 35.8479 1347.84 35.9488 1348.16 36.0199C1348.19 36.0256 1348.26 35.828 1348.31 35.7242C1347.99 35.6702 1347.66 35.6162 1347.33 35.5608C1347 34.2986 1346.14 33.6149 1344.92 33.3164L1344.97 33.3733C1346.67 31.0992 1348.08 32.7223 1349.24 33.8878C1350.01 34.654 1350.28 35.9161 1350.89 37.2209C1354.91 35.7498 1359.26 36.1591 1363.13 36.7774C1366.75 37.3531 1370.49 38.6081 1374.19 39.0317C1378.37 39.5121 1382.01 42.0165 1386.47 41.5589C1388.84 41.3158 1392.07 41.3243 1392.82 45.0298C1392.9 45.3937 1393.75 45.9778 1393.97 45.8755C1396.75 44.5721 1400.25 46.9842 1402.72 44.1884L1402.69 44.2154C1406.74 43.8842 1410.8 43.381 1414.62 45.4647C1417.08 46.8079 1419.61 48.0473 1422.54 47.9237C1422.91 47.9081 1423.42 48.0047 1423.63 48.252C1426.2 51.3534 1429.8 50.1325 1433.01 50.5944C1435.18 50.9071 1437.28 51.5112 1438.89 53.1898C1439.54 53.8735 1440.15 54.6054 1439.4 55.5364C1438.78 56.2969 1437.84 56.7418 1437.01 56.1334C1434.81 54.5202 1431.81 54.7789 1429.75 52.9069C1429.15 52.3626 1428.47 52.1238 1427.65 52.0996C1423.85 51.9887 1423.07 51.7457 1419.5 49.6833C1418.89 52.887 1416.99 52.1366 1415.02 51.1558L1415.06 51.1971C1414.33 49.8027 1412.79 48.7978 1413.74 46.7738C1411.67 47.2485 1411.75 48.6287 1411.25 49.9349C1406.18 47.3523 1400.83 48.5135 1395.66 47.9194C1394.52 47.7901 1393.11 48.1497 1392.35 47.3196C1388.89 43.5317 1384.57 44.646 1380.37 44.963L1380.18 44.7996L1380.36 44.9772C1377.82 45.4292 1377.71 42.9262 1376.59 41.6356C1375.82 42.4316 1376.59 43.5672 1375.72 44.1656L1375.77 44.2097Z" fill="#7C6063"/>
<path fill-rule="evenodd" clip-rule="evenodd" d="M1105.62 17.7836C1105.9 17.6074 1106.15 17.5363 1106.24 17.3743C1106.43 17.0431 1106.42 16.665 1105.97 16.5698C1105.79 16.5328 1105.39 16.729 1105.39 16.8157C1105.39 17.127 1105.53 17.4368 1105.62 17.7836ZM1101.61 17.0929L1100.86 15.5123L1100.83 15.5507C1103.36 14.3895 1106.11 15.1726 1108.73 14.6595C1110.72 14.2701 1110.57 16.8953 1112.03 17.3715C1112.8 16.7262 1111.85 15.8989 1112.36 15.2096C1112.78 14.6439 1113.2 14.2246 1113.91 14.3525C1114.5 14.4605 1114.61 14.8542 1114.61 15.4811C1114.59 17.5633 1115.91 17.3544 1117.08 16.6082C1120.14 14.6453 1122.19 14.6894 1125.51 17.0431C1125.74 17.3288 1125.26 17.9442 1125.95 18.0153C1125.79 17.7012 1125.64 17.3871 1125.48 17.073C1126.24 15.7397 1127.27 15.4782 1128.57 16.287L1128.54 16.3154C1129.68 15.491 1130.34 16.1306 1130.9 17.0872L1130.86 17.0545C1136.32 15.2508 1141.86 16.8271 1147.36 16.7517C1148.28 16.739 1149.22 17.9798 1150.15 18.6407L1150.1 18.5839C1150.11 18.8681 1150.11 19.1524 1150.11 19.4381L1150.12 19.4026C1147.04 19.2306 1143.96 18.8738 1140.87 19.4139C1140.78 18.8596 1141.04 18.1688 1140.27 17.8504C1139.98 18.591 1140.34 19.0359 1140.9 19.3955C1140.88 19.647 1140.86 19.9 1140.84 20.1516C1136.4 18.9264 1132.03 21.3072 1127.53 20.4714C1126.6 20.298 1127.63 21.2859 1127.77 21.7364L1127.8 21.708C1127.08 21.9908 1126.16 22.4514 1125.61 21.9738C1122.98 19.6485 1119.73 21.1451 1116.82 20.5496C1114.46 20.0678 1111.73 21.0485 1109.16 21.3086C1106.85 21.5445 1104.99 20.8794 1102.96 20.4686C1100.89 20.0521 1101.71 18.3309 1101.58 17.0531C1101.71 16.8953 1102.2 17.1838 1102.05 16.6707C1101.9 16.8114 1101.76 16.9522 1101.61 17.0929Z" fill="#7C6063"/>
<path fill-rule="evenodd" clip-rule="evenodd" d="M1362.67 45.7361C1363.18 46.7297 1363.85 47.2257 1365.06 46.6088C1364.42 45.3268 1363.44 45.8584 1362.65 45.7546L1362.52 45.6125L1362.67 45.7361ZM1353.43 52.7079C1351.41 54.594 1348.9 54.26 1346.47 54.2358L1346.5 54.2685C1346.95 51.7442 1349.35 50.9525 1351.02 50.7379C1354.56 50.2802 1357.76 49.217 1360.84 47.1447C1358.09 46.7723 1355.35 46.2833 1352.57 47.5853C1349.43 49.055 1346.18 50.0897 1342.63 49.6036L1342.66 49.6605C1342.54 48.8077 1341.53 48.2135 1342.05 46.9357C1345.81 47.4147 1348.98 45.938 1352.4 44.1456C1355.66 42.4443 1359.89 43.5885 1363.68 43.9012C1364.94 44.0049 1366.16 44.555 1367.44 43.9708C1368.2 43.6212 1368.93 43.5927 1369.42 44.4455C1369.87 45.2287 1369.63 45.9877 1369.13 46.5904C1368 47.9406 1367.41 50.239 1364.76 49.0607C1364.16 48.7906 1363.05 48.8617 1362.56 49.2582C1359.87 51.4386 1356.52 51.7627 1353.4 52.7334L1353.3 52.5927L1353.43 52.7079Z" fill="#7C6063"/>
<path fill-rule="evenodd" clip-rule="evenodd" d="M1150.15 18.6411C1150.19 18.0171 1150.12 16.9468 1150.69 16.9681C1152.94 17.0506 1155.46 16.1054 1157.71 18.5615C1155.74 19.0518 1153.72 18.624 1152.44 20.1619L1152.47 20.1889L1151.63 20.1889L1151.65 20.1633C1151.15 19.9103 1150.64 19.6559 1150.12 19.4029L1150.11 19.4384C1150.37 19.1513 1150.34 18.867 1150.1 18.5842L1150.15 18.6411Z" fill="#7C6063"/>
<path fill-rule="evenodd" clip-rule="evenodd" d="M1167.88 20.6039C1166.48 21.3686 1164.99 21.7325 1163.2 21.3899C1163.08 19.4668 1164.16 18.678 1165.63 18.4648C1166.92 18.2772 1167.84 18.8926 1167.88 20.6039Z" fill="#7C6063"/>
<path fill-rule="evenodd" clip-rule="evenodd" d="M1200.21 33.3756C1199.9 32.3394 1199.58 31.3046 1199.18 30.0013C1200.83 30.1292 1202.16 30.5613 1203.66 31.289C1202.88 32.9321 1201.09 32.4204 1200.19 33.3443L1200.21 33.3756Z" fill="#7C6063"/>
<path fill-rule="evenodd" clip-rule="evenodd" d="M1160.87 26.3298C1159.12 29.4682 1156.11 26.4691 1154.02 27.9644C1156.02 25.8992 1158.62 26.9808 1160.91 26.3867L1160.87 26.3298Z" fill="#7C6063"/>
<path fill-rule="evenodd" clip-rule="evenodd" d="M1210.18 31.0129C1209.32 31.2588 1208.67 32.5921 1207.63 31.7165C1207.1 31.273 1207.44 30.5467 1207.98 30.1487C1209.15 29.2831 1209.74 29.9753 1210.16 31.0442L1210.18 31.0129Z" fill="#7C6063"/>
<path fill-rule="evenodd" clip-rule="evenodd" d="M1191.56 27.5921C1190.16 28.6254 1189.17 28.9708 1187.92 27.7882C1189.04 27.0108 1190.08 27.2126 1191.56 27.5921Z" fill="#7C6063"/>
<path fill-rule="evenodd" clip-rule="evenodd" d="M1171.63 25.8942C1171.72 26.5182 1171.4 26.8423 1170.82 26.7996C1170.19 26.7527 1169.58 26.5125 1169.47 25.7919C1169.41 25.3939 1169.76 25.1239 1170.17 25.0812C1170.83 25.0087 1171.4 25.1566 1171.63 25.8942Z" fill="#7C6063"/>
<path fill-rule="evenodd" clip-rule="evenodd" d="M1160.03 20.081C1159.51 19.9133 1159.15 19.5367 1159.07 19.015C1158.98 18.3825 1159.37 18.0798 1159.96 18.2233C1160.51 18.3598 1160.75 18.8217 1160.73 19.3789C1160.71 19.7968 1160.53 20.1137 1160.03 20.081Z" fill="#7C6063"/>
<path fill-rule="evenodd" clip-rule="evenodd" d="M1156.32 24.0718C1157.02 23.6127 1157.73 23.2887 1158.69 23.8331C1157.82 24.6688 1157.02 23.8146 1156.29 24.0406L1156.32 24.0718Z" fill="#7C6063"/>
<path fill-rule="evenodd" clip-rule="evenodd" d="M1166.26 26.3332C1166.05 26.8704 1165.97 27.5427 1165.17 27.5214C1165.08 27.52 1164.93 27.3594 1164.94 27.294C1165.06 26.518 1165.74 26.535 1166.29 26.373L1166.26 26.3332Z" fill="#7C6063"/>
<path fill-rule="evenodd" clip-rule="evenodd" d="M1172.48 20.1676L1172.45 20.2003L1172.48 20.1676Z" fill="#7C6063"/>
<path fill-rule="evenodd" clip-rule="evenodd" d="M1157.85 20.9433L1157.82 20.9731L1157.85 20.9433Z" fill="#7C6063"/>
<path fill-rule="evenodd" clip-rule="evenodd" d="M628.53 25.0579L628.381 24.8475L628.614 24.8077L628.53 25.0579ZM606.754 27.0947C606.653 26.927 606.553 26.7592 606.453 26.5929C606.646 26.5062 606.861 26.3243 607.026 26.3613C607.165 26.3925 607.245 26.6825 607.351 26.8559C607.153 26.9355 606.954 27.0151 606.754 27.0947ZM711.936 18.8892C711.731 18.8111 711.411 18.7897 711.343 18.6462C711.152 18.2411 711.435 17.9753 711.801 17.9014C711.987 17.8644 712.343 17.9696 712.398 18.1032C712.565 18.5012 712.288 18.7414 711.936 18.8892ZM640.032 20.6887C639.502 20.71 638.831 21.4704 638.254 20.4158C638.861 20.0746 639.401 19.9098 640.032 20.6887ZM642.639 19.9055C642.761 19.1223 642.823 18.4344 643.793 18.2994C643.903 18.2837 644.203 18.6405 644.173 18.767C644.016 19.4109 643.706 19.9481 642.639 19.9055ZM632.145 20.5522C633.357 19.5231 634.512 19.418 636.433 19.7818C634.706 20.4541 633.707 21.4022 632.145 20.5522ZM719.021 16.7146C718.878 18.2539 718.645 19.3014 717.161 19.8643C716.589 18.0563 717.596 17.4764 719.021 16.7146ZM654.302 19.5359C654.211 19.445 654.101 19.3668 654.039 19.2602C653.994 19.182 654.012 19.0669 654.002 18.9688C654.09 19.1664 654.179 19.3654 654.266 19.5644C655.403 19.6838 656.411 19.9382 656.302 21.4676C654.439 21.9366 654.62 20.4868 654.302 19.5359ZM625.059 21.0468C624.601 21.0739 624.04 21.3794 623.826 20.6929C623.78 20.5465 624.008 20.1528 624.143 20.1358C624.834 20.0448 624.879 20.6304 625.016 21.098C625.677 20.9573 626.242 20.0718 627.045 20.8251C626.578 21.4761 626.676 22.7382 625.419 22.4213C625.199 22.3659 625.175 21.5258 625.059 21.0468ZM604.268 26.4892L604.135 26.411L604.224 26.5347L604.345 26.6228L604.268 26.4892ZM678.923 23.429C681.727 24.0828 684.282 26.1637 687.415 24.9314L687.381 24.9655C686.993 24.1525 687 23.456 688.005 23.1547C688.805 22.9159 689.228 23.3935 689.308 24.0999C689.447 25.3493 689.776 26.3741 691.251 26.4949L691.217 26.5389C691.156 26.0329 690.851 25.318 691.075 25.0536C693.796 21.8329 698.339 19.9808 701.337 21.1478C704.699 22.454 705.568 20.5863 707.285 19.4407C708.902 20.167 706.693 21.3467 708.108 22.2493C709.411 22.7183 710.453 20.6332 712.052 21.1065C712.315 20.8436 712.577 20.5806 712.84 20.3177C713.281 19.4848 713.775 18.6917 714.9 19.1849C715.258 19.3426 715.462 19.7889 715.193 20.1542C714.473 21.1364 713.625 20.6531 712.805 20.2821C712.544 20.5465 712.282 20.8109 712.021 21.0753C712.469 21.5258 713.008 22.4284 713.349 22.3573C716.061 21.793 718.681 20.7427 721.501 22.1697C722.031 22.4369 722.693 21.3411 722.722 20.5053C722.779 18.6789 720.843 20.4072 720.36 18.8338C723.145 18.1956 725.175 15.7779 728.672 16.5639C731.326 17.1609 734.107 15.9086 736.816 15.4638C740.792 14.8128 744.778 13.093 749.189 15.3742C751.292 16.4616 754.856 17.2817 757.486 14.9066C757.744 14.6451 758.004 14.3821 758.263 14.1206C758.689 13.599 759.199 13.346 759.815 13.761C759.922 13.8335 759.96 14.2656 759.871 14.3381C759.264 14.8398 758.775 14.2627 758.239 14.095C757.977 14.3551 757.716 14.6152 757.455 14.8753C759.353 16.5369 761.299 17.8033 763.665 15.6457L763.626 15.6855C765.225 14.3452 764.483 12.6211 764.384 11.0007L764.418 11.0348C762.472 10.2588 760.538 9.58933 759.004 11.7924L759.023 11.7711C755.169 10.4848 751.408 11.2836 747.499 11.7569C743.869 12.1975 740.35 13.3843 736.671 13.3644L736.713 13.3204C735.928 14.1945 735.141 15.3202 734.35 13.3232L734.387 13.3602C728.583 14.1675 722.771 13.6615 716.863 15.1539C709.959 16.8979 702.738 18.5083 695.392 17.8588C694.149 17.7479 692.891 17.5105 691.977 18.929C691.272 20.022 690 19.87 688.864 19.5743C684.601 18.4643 684.603 18.4557 681.276 21.6268C680.343 18.7428 678.343 18.632 675.793 19.1294C674.108 19.4592 672.262 18.9674 670.49 18.8253C668.309 18.6519 666.234 18.7642 664.076 19.5004C661.966 20.221 659.598 20.4342 657.696 18.5097C657.266 18.0734 656.635 17.701 656.043 17.5887C653.141 17.0401 650.37 16.264 647.553 15.2605C644.749 14.2613 641.077 14.8455 637.759 15.3359C631.525 16.2555 625.282 17.2447 619.232 18.8978C615.765 19.8444 611.537 19.2474 608.831 22.9799C608.415 20.4996 606.84 20.0931 604.916 20.619C603.792 20.926 602.69 21.3524 603.482 23.0637C603.937 24.0501 603.718 24.1525 601.926 24.1667C601.646 24.4595 601.58 25.0437 600.955 24.8845C601.009 24.225 601.605 24.3955 601.957 24.2008C600.859 22.2621 599.643 21.4804 597.3 22.724C595.715 23.5669 593.519 22.9671 591.898 24.2065L591.944 24.1511C591.713 24.8987 591.672 25.5554 592.677 25.7131L592.643 25.7501C592.929 25.7487 593.215 25.7487 593.502 25.7472L593.471 25.716C599.72 24.9854 604.488 29.3561 610.119 31.11C610.273 29.5181 608.927 29.8749 608.612 28.8572C609.648 28.3171 610.917 27.8736 610.088 25.9832C609.536 24.7239 610.331 22.9913 612.059 24.1553C614.388 25.7231 616.747 24.4794 619.049 24.8788C620.148 25.0693 621.299 23.6579 622.218 25.9306C622.763 27.2781 624.546 25.4047 626.283 24.2406C625.242 26.9483 626.666 27.4713 628.223 27.6433C629.064 27.7371 630.766 28.897 630.416 26.4878C630.333 26.5702 630.261 26.6711 630.163 26.7294C630.091 26.7735 629.988 26.7635 629.899 26.7763C630.084 26.6953 630.269 26.6143 630.454 26.5333C630.549 24.3046 632.834 22.8434 635.579 23.6863C638.71 24.65 641.841 23.6024 645.039 24.1241C647.444 24.5178 645.978 21.7675 645.795 20.3291L645.634 20.123L645.841 20.2807C646.672 19.9595 647.471 19.4819 648.819 19.8671C647.354 22.2948 647.46 24.4098 650.436 25.5198C650.786 25.6506 651.403 26.0074 651.408 25.9988C653.426 22.1754 658.146 25.4545 660.502 22.4867C661.218 21.5855 661.689 21.9992 662.781 22.5421C664.542 23.4191 667.004 23.1703 669.121 22.9443C671.216 22.7198 673.034 23.1547 674.913 23.918C676.291 24.4766 677.84 25.2199 678.964 23.3779C678.795 23.2471 678.291 23.6095 678.433 23.0154C678.597 23.1533 678.761 23.2912 678.923 23.429Z" fill="#7C6063"/>
<path fill-rule="evenodd" clip-rule="evenodd" d="M561.091 35.0433C565.481 32.7436 570.415 32.2575 575.101 32.1295C578.973 32.0229 583.115 31.2128 586.968 32.8971C587.74 33.2339 588.435 32.9511 589.026 32.3271C590.149 31.1431 591.065 31.8481 591.94 32.7137L591.912 32.6867C594.759 32.6796 597.429 34.6084 600.381 33.4841L600.357 33.5281C599.757 29.446 598.154 27.6594 594.343 28.4596C591.877 28.977 590.929 27.9351 589.662 26.5891C589.343 26.6815 589.026 26.7824 588.702 26.8535C588.673 26.8592 588.603 26.6616 588.55 26.5578C588.878 26.5038 589.206 26.4498 589.533 26.3944C589.864 25.1322 590.727 24.4485 591.944 24.1501L591.898 24.2069C590.197 21.9328 588.781 23.556 587.62 24.7215C586.857 25.4876 586.589 26.7497 585.973 28.0545C581.954 26.5834 577.601 26.9928 573.732 27.6111C570.115 28.1867 566.374 29.4418 562.67 29.8653C558.491 30.3457 554.85 32.8502 550.391 32.3925C548.025 32.1494 544.796 32.158 544.042 35.8634C543.968 36.2273 543.118 36.8115 542.898 36.7091C540.109 35.4057 536.618 37.8178 534.145 35.022L534.173 35.049C530.121 34.7178 526.067 34.2147 522.244 36.2984C519.779 37.6415 517.256 38.881 514.32 38.7573C513.957 38.7417 513.441 38.8383 513.236 39.0856C510.659 42.187 507.061 40.9661 503.849 41.428C501.687 41.7407 499.581 42.3448 497.977 44.0234C497.324 44.7071 496.717 45.4391 497.468 46.37C498.08 47.1305 499.025 47.5754 499.856 46.967C502.058 45.3538 505.051 45.6125 507.114 43.7406C507.711 43.1962 508.398 42.9574 509.21 42.9332C513.013 42.8224 513.796 42.5793 517.362 40.5169C517.974 43.7207 519.871 42.9702 521.841 41.9895L521.809 42.0307C522.532 40.6363 524.074 39.6314 523.119 37.6074C525.196 38.0822 525.114 39.4623 525.612 40.7685C530.681 38.1859 536.036 39.3472 541.207 38.753C542.34 38.6237 543.751 38.9833 544.511 38.1532C547.977 34.3653 552.29 35.4797 556.491 35.7966L556.686 35.6332L556.504 35.8108C559.039 36.2628 559.149 33.7598 560.272 32.4692C561.047 33.2652 560.271 34.4008 561.139 34.9992L561.091 35.0433Z" fill="#7C6063"/>
<path fill-rule="evenodd" clip-rule="evenodd" d="M831.247 8.61727C830.964 8.44102 830.714 8.36996 830.621 8.20793C830.429 7.87675 830.44 7.49866 830.896 7.40343C831.074 7.36647 831.474 7.56263 831.472 7.64933C831.47 7.96061 831.338 8.27046 831.247 8.61727ZM835.249 7.9265L835.999 6.34595L836.037 6.38432C833.502 5.22307 830.749 6.00624 828.129 5.49313C826.145 5.10368 826.292 7.72893 824.831 8.20509C824.059 7.55979 825.009 6.73255 824.504 6.04319C824.088 5.47749 823.665 5.05819 822.951 5.18611C822.359 5.29414 822.255 5.68786 822.258 6.31468C822.269 8.39697 820.951 8.18803 819.787 7.44182C816.724 5.47892 814.672 5.52298 811.354 7.87675C811.119 8.16244 811.607 8.77788 810.912 8.84895C811.07 8.53483 811.228 8.22071 811.386 7.90659C810.625 6.57336 809.595 6.31184 808.296 7.12059L808.324 7.149C807.189 6.32462 806.527 6.96423 805.968 7.9208L805.999 7.88812C800.542 6.08441 795.002 7.6607 789.505 7.58537C788.584 7.57258 787.645 8.81342 786.714 9.47435L786.759 9.4175C786.756 9.70177 786.755 9.98604 786.753 10.2717L786.739 10.2362C789.823 10.0642 792.907 9.70746 795.991 10.2476C796.081 9.69325 795.82 9.00246 796.591 8.68407C796.882 9.4246 796.527 9.86949 795.968 10.2291C795.985 10.4807 796.002 10.7337 796.02 10.9853C800.468 9.76004 804.835 12.1408 809.331 11.3051C810.262 11.1317 809.232 12.1195 809.091 12.5701L809.063 12.5416C809.779 12.8245 810.707 13.285 811.249 12.8074C813.882 10.4821 817.129 11.9788 820.039 11.3832C822.402 10.9014 825.136 11.8821 827.7 12.1422C830.018 12.3782 831.874 11.713 833.908 11.3022C835.973 10.8858 835.156 9.16451 835.285 7.8867C835.155 7.72893 834.66 8.01745 834.817 7.50434C834.961 7.64506 835.105 7.78579 835.249 7.9265Z" fill="#7C6063"/>
<path fill-rule="evenodd" clip-rule="evenodd" d="M574.195 36.5697C573.684 37.5633 573.018 38.0593 571.807 37.4424C572.441 36.1604 573.422 36.692 574.215 36.5882L574.348 36.4461L574.195 36.5697ZM583.432 43.5415C585.455 45.4276 587.961 45.0936 590.397 45.0694L590.362 45.1021C589.913 42.5778 587.513 41.7861 585.843 41.5715C582.304 41.1138 579.105 40.0506 576.023 37.9783C578.771 37.6059 581.51 37.1169 584.293 38.4189C587.435 39.8886 590.688 40.9233 594.233 40.4372L594.199 40.4941C594.319 39.6413 595.335 39.0471 594.814 37.7693C591.05 38.2483 587.887 36.7716 584.462 34.9792C581.205 33.2779 576.978 34.4221 573.182 34.7348C571.927 34.8385 570.701 35.3886 569.427 34.8044C568.664 34.4548 567.931 34.4263 567.442 35.2791C566.992 36.0623 567.233 36.8213 567.736 37.424C568.864 38.7742 569.452 41.0726 572.1 39.8943C572.705 39.6242 573.811 39.6953 574.301 40.0918C576.999 42.2722 580.342 42.5963 583.459 43.5671L583.564 43.4263L583.432 43.5415Z" fill="#7C6063"/>
<path fill-rule="evenodd" clip-rule="evenodd" d="M786.715 9.47466C786.672 8.85068 786.748 7.78039 786.176 7.80171C783.922 7.88415 781.407 6.93895 779.157 9.39506C781.124 9.88543 783.148 9.45759 784.421 10.9955L784.398 11.0225L785.231 11.0225L785.209 10.9969C785.719 10.7439 786.229 10.4895 786.74 10.2365L786.754 10.272C786.491 9.98493 786.521 9.70064 786.76 9.41779L786.715 9.47466Z" fill="#7C6063"/>
<path fill-rule="evenodd" clip-rule="evenodd" d="M768.986 11.4375C770.383 12.2022 771.871 12.5661 773.662 12.2235C773.78 10.3004 772.699 9.51159 771.234 9.29839C769.946 9.11077 769.021 9.72622 768.986 11.4375Z" fill="#7C6063"/>
<path fill-rule="evenodd" clip-rule="evenodd" d="M736.653 24.2092C736.968 23.173 737.283 22.1383 737.68 20.8349C736.033 20.9628 734.701 21.3949 733.201 22.1226C733.988 23.7657 735.77 23.254 736.679 24.1779L736.653 24.2092Z" fill="#7C6063"/>
<path fill-rule="evenodd" clip-rule="evenodd" d="M775.991 17.1635C777.748 20.3018 780.753 17.3028 782.843 18.798C780.847 16.7328 778.24 17.8144 775.957 17.2203L775.991 17.1635Z" fill="#7C6063"/>
<path fill-rule="evenodd" clip-rule="evenodd" d="M726.679 21.8466C727.541 22.0924 728.19 23.4257 729.233 22.5501C729.761 22.1067 729.419 21.3803 728.882 20.9824C727.71 20.1168 727.12 20.809 726.707 21.8778L726.679 21.8466Z" fill="#7C6063"/>
<path fill-rule="evenodd" clip-rule="evenodd" d="M745.303 18.4257C746.708 19.4591 747.691 19.8044 748.947 18.6219C747.824 17.8444 746.78 18.0462 745.303 18.4257Z" fill="#7C6063"/>
<path fill-rule="evenodd" clip-rule="evenodd" d="M765.235 16.7279C765.145 17.3518 765.46 17.6759 766.04 17.6332C766.671 17.5863 767.287 17.3461 767.396 16.6255C767.457 16.2275 767.102 15.9575 766.693 15.9148C766.029 15.8423 765.464 15.9902 765.235 16.7279Z" fill="#7C6063"/>
<path fill-rule="evenodd" clip-rule="evenodd" d="M776.829 10.9147C777.356 10.747 777.711 10.3703 777.79 9.84867C777.886 9.21617 777.497 8.91344 776.904 9.05699C776.352 9.19344 776.112 9.65538 776.133 10.2126C776.151 10.6304 776.331 10.9474 776.829 10.9147Z" fill="#7C6063"/>
<path fill-rule="evenodd" clip-rule="evenodd" d="M780.547 14.9054C779.842 14.4463 779.129 14.1223 778.172 14.6667C779.043 15.5024 779.841 14.6482 780.576 14.8742L780.547 14.9054Z" fill="#7C6063"/>
<path fill-rule="evenodd" clip-rule="evenodd" d="M770.604 17.1668C770.818 17.7041 770.896 18.3764 771.695 18.355C771.779 18.3536 771.937 18.193 771.927 18.1276C771.803 17.3516 771.126 17.3686 770.575 17.2066L770.604 17.1668Z" fill="#7C6063"/>
<path fill-rule="evenodd" clip-rule="evenodd" d="M764.384 11.0013L764.417 11.0339L764.384 11.0013Z" fill="#7C6063"/>
<path fill-rule="evenodd" clip-rule="evenodd" d="M779.018 11.7769L779.048 11.8067L779.018 11.7769Z" fill="#7C6063"/>
<path fill-rule="evenodd" clip-rule="evenodd" d="M957.69 6.46693C957.772 6.65597 957.807 6.92175 957.951 7.0113C958.074 7.08805 958.321 6.96582 958.513 6.9317C958.434 6.73982 958.402 6.47121 958.257 6.38024C958.135 6.30207 957.885 6.42855 957.69 6.46693ZM858.459 2.95334C858.304 2.78278 858.167 2.49709 857.986 2.46582C857.549 2.38906 857.247 2.62359 857.427 3.0969C857.489 3.26177 857.825 3.4153 858.024 3.4025C858.178 3.39113 858.315 3.11396 858.459 2.95334ZM940.845 5.97372C941.096 6.25799 941.362 6.52948 941.779 6.31201C941.839 6.28074 941.825 6.10307 941.845 5.99363C941.499 5.99931 941.153 6.00499 940.805 6.01067L940.845 5.97372ZM930.068 5.1934L930.149 5.33555L930.03 5.23461L929.932 5.11949L930.068 5.1934ZM1010.13 19.1383C1006.5 19.2662 1003.38 17.2465 999.858 16.6736C997.149 16.2316 994.184 16.8257 991.657 15.2708L991.629 15.3134C991.892 15.0277 991.864 14.7449 991.623 14.4635L991.684 14.5288C991.505 14.327 991.296 14.2844 991.057 14.4023C990.95 14.4876 990.854 14.5829 990.77 14.6937L990.748 15.0206L990.892 15.3191L990.865 15.275C990.108 16.6467 989.074 17.2991 987.729 16.7916C986.455 15.528 990.03 14.924 987.784 13.7542L987.816 13.7229C987.241 14.6169 986.323 14.462 985.469 14.4961L985.503 14.5217L983.938 12.927L983.984 12.9753C983.445 12.4096 982.907 12.3215 982.369 12.971L982.412 12.944C981.409 12.9853 980.368 12.5389 979.407 13.0563C973.736 16.1122 967.414 17.2507 961.447 19.3955C958.365 20.5028 955.038 21.6398 952.352 23.8202L952.392 23.7832C950.489 23.1777 948.834 23.9623 947.296 24.8791C945.842 25.7447 944.51 25.3041 944.109 24.076C943.742 22.9475 942.564 21.3144 944.709 20.1787C947.423 18.7417 950.055 17.2024 953.163 16.8073C953.166 17.0844 953.17 17.363 953.173 17.6416C952.609 17.6743 951.899 17.3616 951.711 18.2613C951.694 18.3437 951.811 18.52 951.9 18.5512C952.763 18.844 952.944 18.2187 953.126 17.6046C953.126 17.3488 953.125 17.0944 953.123 16.8399C954.334 16.4704 955.401 17.6146 956.989 16.0184C958.694 14.3057 962.125 14.4222 964.786 13.6845C966.869 13.1075 968.831 12.2575 970.897 11.7956C971.119 10.3472 969.745 10.5121 969.29 9.84691L969.317 9.87534C965.919 11.5795 962.248 12.3172 958.546 12.9469L958.57 12.9724C958.481 12.9142 958.385 12.8019 958.303 12.8104C958.109 12.8317 957.923 12.9113 957.732 12.9682L957.755 12.9426C956.448 11.3635 955.167 12.1253 953.889 12.9852C953.673 12.3741 954.208 11.3649 952.811 11.2384C952.684 12.1907 953.315 12.5674 953.925 12.954C953.517 14.165 952.777 14.1152 951.879 13.5097C950.724 12.7322 949.602 11.8937 948.396 11.2071C946.29 10.0118 944.293 9.19734 941.708 10.5434C939.623 11.6278 937.062 11.5611 934.649 11.382L934.684 11.4161C933.897 9.76447 933.5 10.9982 932.969 11.6293C932.13 12.6271 931.853 14.3725 930.098 14.2247C926.095 13.8821 923.314 16.6722 920.03 18.1334C918.254 18.9251 916.595 19.7338 914.616 19.1383L914.805 18.9919L914.654 19.1766C914.575 17.6601 914.996 16.4974 916.071 16.2913C919.584 15.6176 922.719 14.6553 924.824 11.2469C925.581 10.0203 928.218 10.7409 929.808 8.72403C925.167 9.40059 921.038 9.16039 916.91 9.04952L916.966 9.08932C916.39 7.39081 915.575 6.27931 913.694 7.71061C912.817 8.37722 911.777 8.24219 910.776 8.28057L910.815 8.3218C911.444 7.53153 911.8 6.17272 910.397 6.6773C906.003 8.25642 901.948 6.97577 897.85 5.82732C896.11 5.3398 895.283 6.43423 894.215 7.31831C893.475 7.93091 893.397 7.90819 892.278 6.7171C891.716 6.11729 891.143 6.19262 890.578 6.50531C889.116 7.31975 887.637 7.20319 886.126 6.7313L886.174 6.77821C886.048 5.8387 885.903 4.96172 884.569 5.36539C881.703 6.23383 878.877 6.05615 875.888 5.71929C873.623 5.46487 871.291 6.41149 868.836 5.44639C867.507 4.92333 866.806 6.11869 867.678 7.55426L867.644 7.51873C863.537 5.51605 859.442 8.39712 855.339 7.54857C854.918 7.04968 854.465 6.72987 853.887 7.32683C853.821 7.39506 853.785 7.60401 853.833 7.6566C854.414 8.28626 854.876 7.69783 855.376 7.48605C855.524 8.45967 855.027 8.90312 854.131 9.02252C853.157 9.15328 852.48 9.63795 852.244 10.6414L852.273 10.613C851.288 10.3188 850.179 10.0359 849.987 8.87328C849.825 7.88829 850.842 7.79448 851.511 7.50737L851.469 7.55C851.22 7.02553 850.97 6.50103 850.722 5.97656L850.739 5.99078C850.463 5.99363 850.188 5.99645 849.912 6.00072L849.941 5.96946C848.329 6.87202 846.669 7.15627 844.788 6.92886C842.664 6.67159 840.487 6.47829 838.409 7.53578C835.815 8.85479 833.731 7.40929 831.779 5.93535C830.419 4.90771 830.823 3.53468 832.292 3.55458C836.208 3.60717 840.186 3.07273 844.032 4.24535C844.291 4.32352 844.405 4.88212 844.586 5.21756L844.554 5.18487C846.205 4.57938 845.062 2.5582 846.534 1.61727C847.524 1.76793 848.748 1.95272 849.972 2.13891L849.928 2.09484C850.09 2.29241 850.357 2.68186 850.401 2.65912C855.801 -0.30155 861.699 0.963455 867.393 0.720404C869.814 0.618067 872.234 0.760209 874.627 0.234309C875.243 0.0992811 876.171 -0.160838 876.486 0.137646C878.866 2.40186 881.359 1.0658 883.836 0.547009C884.035 0.568329 884.103 1.10701 884.411 0.691972C884.208 0.657859 884.004 0.62517 883.801 0.591057C883.911 0.527096 884.045 0.383553 884.13 0.409137C888.565 1.73242 893.174 -0.745006 897.572 1.01463C899.332 1.71819 901.311 1.33017 902.804 1.00042C905.735 0.350864 908.147 -0.516176 910.966 1.68123C912.228 2.66623 914.533 1.39556 916.537 1.55475C920.253 1.84755 924.054 2.45731 927.971 2.02664C934.012 1.36287 940.243 1.01463 945.848 5.00294C947.565 6.2253 950.591 6.22672 952.873 5.86712C957.509 5.13513 961.974 5.94103 966.413 6.73699C969.783 7.34248 973.362 5.81738 976.475 7.65945C978.393 8.79511 980.937 7.46046 982.534 9.62944C983.342 10.7253 984.173 9.11633 985.269 9.20303C988.342 9.44751 991.132 10.7296 994.002 11.4999C996.643 12.2092 999.837 11.129 1002.11 13.9845C1003.08 15.2097 1004.14 13.2695 1004.76 12.1708L1004.72 12.2064C1005.51 12.4466 1006.3 12.6853 1007.09 12.9241C1007.04 13.2738 1007 13.6234 1006.95 13.9745C1007.06 13.9688 1007.24 14.0058 1007.27 13.9532C1007.51 13.5552 1007.28 13.251 1007.03 12.9582C1009.15 11.8482 1010.16 14.236 1011.85 14.5132C1017.25 15.3958 1022.63 16.3283 1028.03 17.2166C1028.88 17.3559 1029.98 17.0603 1029.94 18.4674C1029.9 19.586 1029.13 20.1759 1028.15 20.0579C1026.31 19.8319 1024.63 20.6534 1022.85 20.7032C1020.79 20.7586 1018.78 20.9135 1016.68 22.5737C1017.94 20.2327 1015.91 19.387 1015.65 17.2635C1014.34 19.4851 1012.8 20.0607 1010.89 19.144L1010.91 19.1695C1010.74 18.5953 1010.93 17.5009 1010.18 17.6373C1009.17 17.8221 1010.05 18.638 1010.11 19.1809L1010.13 19.1383Z" fill="#7C6063"/>
<path fill-rule="evenodd" clip-rule="evenodd" d="M1067.74 19.7217C1067.79 19.8298 1067.81 19.9819 1067.9 20.0316C1067.96 20.07 1068.1 19.9819 1068.21 19.9506C1068.16 19.8426 1068.13 19.6891 1068.05 19.6407C1067.98 19.6024 1067.84 19.6905 1067.74 19.7217ZM1060.29 23.1756C1060.38 23.1458 1060.48 23.1145 1060.57 23.0832C1060.5 22.9198 1060.44 22.7521 1060.35 22.6C1060.34 22.5829 1060.18 22.6568 1060.08 22.6881C1060.15 22.8516 1060.22 23.0136 1060.29 23.1756ZM1058.66 21.5013C1058.5 21.6349 1058.04 21.2966 1058.14 21.8396C1058.3 21.7131 1058.47 21.5866 1058.63 21.4615C1058.8 21.335 1059.34 21.6875 1059.13 21.0692C1058.98 21.2127 1058.82 21.3577 1058.66 21.5013ZM1052.51 20.7238L1052.32 20.8403L1052.46 20.6769L1052.51 20.7238ZM1068.68 23.0122C1066.72 23.8991 1065.08 25.97 1062.55 24.6439C1064.66 24.5529 1064.76 23.0363 1064.77 21.4629L1064.93 21.3449L1064.81 21.5027C1064.55 21.4984 1064.29 21.4956 1064.03 21.4913C1063.46 21.1488 1062.96 20.5163 1062.15 21.0891C1062.7 21.8012 1063.45 21.2994 1064.06 21.4458C1064.2 22.8302 1063.38 23.7044 1062.44 24.5174C1061.57 25.3162 1060.56 25.6218 1059.4 25.3332L1059.43 25.3617C1056.63 24.9793 1053.83 24.9367 1051.58 22.5446C1050.78 21.6932 1050.07 22.7265 1050.91 23.8152L1050.95 23.7783C1050.26 24.0881 1049.3 24.6993 1048.84 24.0071C1047.14 21.443 1044.85 22.2546 1042.45 22.3157C1039.85 22.3825 1036.94 22.961 1034.74 20.6968L1034.77 20.7266C1033.63 20.1865 1032.33 19.8681 1031.6 18.3061C1034.57 16.2906 1037.8 17.7375 1040.65 18.0374C1049.27 18.9471 1057.77 18.2023 1066.3 17.2969C1069.43 16.9657 1072.52 18.4482 1075.7 17.9394C1076.19 17.8598 1076.66 17.7105 1077.14 17.594L1077.11 17.6295C1077.37 17.1022 1077.64 16.5734 1077.91 16.0461L1077.88 16.076C1080.18 17.061 1082.69 16.8279 1084.96 16.5081C1090.06 15.7903 1095.16 16.835 1100.22 16.0717L1100.18 16.0362C1100.41 16.2394 1100.64 16.4413 1100.87 16.6445C1100.96 16.7952 1101.04 16.9501 1101.12 17.1079C1099.75 18.9841 1097.25 18.6415 1095.59 19.9378L1095.65 19.898C1094.6 19.3693 1093.41 18.7837 1092.34 19.2456C1088.57 20.8603 1084.43 19.6308 1080.66 20.9413C1079.73 21.2625 1078.62 20.549 1078.11 20.8091C1075.1 22.3271 1071.39 20.7309 1068.63 23.0577L1068.68 23.0122Z" fill="#7C6063"/>
</svg>
